<?xml version="1.0" encoding="UTF-8" standalone="no"?>
<!-- Created with Inkscape (http://www.inkscape.org/) -->

<svg
   xmlns:dc="http://purl.org/dc/elements/1.1/"
   xmlns:cc="http://creativecommons.org/ns#"
   xmlns:rdf="http://www.w3.org/1999/02/22-rdf-syntax-ns#"
   xmlns:svg="http://www.w3.org/2000/svg"
   xmlns="http://www.w3.org/2000/svg"
   xmlns:sodipodi="http://sodipodi.sourceforge.net/DTD/sodipodi-0.dtd"
   xmlns:inkscape="http://www.inkscape.org/namespaces/inkscape"
   width="210mm"
   height="297mm"
   id="svg3938"
   version="1.1"
   inkscape:version="0.48.2 r9819"
   sodipodi:docname="New document 25">
  <defs
     id="defs3">
    <clipPath
       id="clipPath4113"
       clipPathUnits="userSpaceOnUse">
      <path
         id="path4115"
         d="m 59.04001,73.44 414.72,0 0,371.52 -414.72,0 0,-371.52 z" />
    </clipPath>
    <clipPath
       id="clipPath4093"
       clipPathUnits="userSpaceOnUse">
      <path
         id="path4095"
         d="M 0,0 504,0 504,504 0,504 0,0 z" />
    </clipPath>
    <clipPath
       id="clipPath3983"
       clipPathUnits="userSpaceOnUse">
      <path
         id="path3985"
         d="M 0,0 504,0 504,504 0,504 0,0 z" />
    </clipPath>
    <clipPath
       id="clipPath4503"
       clipPathUnits="userSpaceOnUse">
      <path
         id="path4505"
         d="m 59.04001,73.44 414.72,0 0,371.52 -414.72,0 0,-371.52 z" />
    </clipPath>
    <clipPath
       id="clipPath4483"
       clipPathUnits="userSpaceOnUse">
      <path
         id="path4485"
         d="M 0,0 504,0 504,504 0,504 0,0 z" />
    </clipPath>
    <clipPath
       id="clipPath4373"
       clipPathUnits="userSpaceOnUse">
      <path
         id="path4375"
         d="M 0,0 504,0 504,504 0,504 0,0 z" />
    </clipPath>
  </defs>
  <sodipodi:namedview
     inkscape:document-units="mm"
     id="base"
     pagecolor="#ffffff"
     bordercolor="#666666"
     borderopacity="1.0"
     inkscape:pageopacity="0.0"
     inkscape:pageshadow="2"
     inkscape:zoom="0.45254834"
     inkscape:cx="468.56784"
     inkscape:cy="730.63578"
     inkscape:current-layer="layer1"
     showgrid="false"
     inkscape:window-width="840"
     inkscape:window-height="741"
     inkscape:window-x="680"
     inkscape:window-y="26"
     inkscape:window-maximized="0" />
  <metadata
     id="metadata4">
    <rdf:RDF>
      <cc:Work
         rdf:about="">
        <dc:format>image/svg+xml</dc:format>
        <dc:type
           rdf:resource="http://purl.org/dc/dcmitype/StillImage" />
        <dc:title></dc:title>
      </cc:Work>
    </rdf:RDF>
  </metadata>
  <g
     inkscape:label="Layer 1"
     inkscape:groupmode="layer"
     id="layer1">
    <g
       id="g5009">
      <g
         transform="matrix(1.25,0,0,1.25,67.94733,106.57996)"
         id="g4507">
        <path
           id="path4509"
           style="fill:#ff0000;fill-opacity:1;fill-rule:nonzero;stroke:#ffffff;stroke-width:0.75;stroke-linecap:round;stroke-linejoin:round;stroke-miterlimit:10;stroke-opacity:1;stroke-dasharray:none"
           d="m 390.0731,179.6273 c 0,19.8823 -16.1177,36 -36,36 -19.8823,0 -36,-16.1177 -36,-36 0,-19.8822 16.1177,-36 36,-36 19.8823,0 36,16.1178 36,36 z"
           inkscape:connector-curvature="0" />
      </g>
      <path
         inkscape:connector-curvature="0"
         d="m 400.07483,427.27984 c 0,20.994 -17.019,38.01287 -38.01288,38.01287 -20.99387,0 -38.01287,-17.01887 -38.01287,-38.01287 0,-20.99388 17.019,-38.01275 38.01287,-38.01275 20.99388,0 38.01288,17.01887 38.01288,38.01275 z"
         style="fill:#ff0000;fill-opacity:1;fill-rule:nonzero;stroke:#ffffff;stroke-width:0.9375;stroke-linecap:round;stroke-linejoin:round;stroke-miterlimit:10;stroke-opacity:1;stroke-dasharray:none"
         id="path4513" />
      <g
         transform="matrix(1.25,0,0,1.25,67.94733,106.57996)"
         id="g4515">
        <path
           id="path4517"
           style="fill:#ff0000;fill-opacity:1;fill-rule:nonzero;stroke:#ffffff;stroke-width:0.75;stroke-linecap:round;stroke-linejoin:round;stroke-miterlimit:10;stroke-opacity:1;stroke-dasharray:none"
           d="m 313.6391,218.5592 c 0,10.4263 -8.4522,18.8785 -18.8785,18.8785 -10.4263,0 -18.8785,-8.4522 -18.8785,-18.8785 0,-10.4263 8.4522,-18.8785 18.8785,-18.8785 10.4263,0 18.8785,8.4522 18.8785,18.8785 z"
           inkscape:connector-curvature="0" />
      </g>
      <g
         transform="matrix(1.25,0,0,1.25,67.94733,106.57996)"
         id="g4519">
        <path
           id="path4521"
           style="fill:#ff0000;fill-opacity:1;fill-rule:nonzero;stroke:#ffffff;stroke-width:0.75;stroke-linecap:round;stroke-linejoin:round;stroke-miterlimit:10;stroke-opacity:1;stroke-dasharray:none"
           d="m 235.7763,182.3751 c 0,3.1924 -2.5879,5.7803 -5.7803,5.7803 -3.1924,0 -5.7803,-2.5879 -5.7803,-5.7803 0,-3.1924 2.5879,-5.7803 5.7803,-5.7803 3.1924,0 5.7803,2.5879 5.7803,5.7803 z"
           inkscape:connector-curvature="0" />
      </g>
      <g
         transform="matrix(1.25,0,0,1.25,67.94733,106.57996)"
         id="g4523">
        <path
           id="path4525"
           style="fill:#ff0000;fill-opacity:1;fill-rule:nonzero;stroke:#ffffff;stroke-width:0.75;stroke-linecap:round;stroke-linejoin:round;stroke-miterlimit:10;stroke-opacity:1;stroke-dasharray:none"
           d="m 305.0056,166.7949 c 0,6.4987 -5.2682,11.767 -11.767,11.767 -6.4987,0 -11.767,-5.2683 -11.767,-11.767 0,-6.4988 5.2683,-11.767 11.767,-11.767 6.4988,0 11.767,5.2682 11.767,11.767 z"
           inkscape:connector-curvature="0" />
      </g>
      <g
         transform="matrix(1.25,0,0,1.25,67.94733,106.57996)"
         id="g4527">
        <path
           id="path4529"
           style="fill:#ff0000;fill-opacity:1;fill-rule:nonzero;stroke:#ffffff;stroke-width:0.75;stroke-linecap:round;stroke-linejoin:round;stroke-miterlimit:10;stroke-opacity:1;stroke-dasharray:none"
           d="m 257.8244,211.5089 c 0,3.2014 -2.5953,5.7967 -5.7967,5.7967 -3.2014,0 -5.7966,-2.5953 -5.7966,-5.7967 0,-3.2013 2.5952,-5.7966 5.7966,-5.7966 3.2014,0 5.7967,2.5953 5.7967,5.7966 z"
           inkscape:connector-curvature="0" />
      </g>
      <g
         transform="matrix(1.25,0,0,1.25,67.94733,106.57996)"
         id="g4531">
        <path
           id="path4533"
           style="fill:#ff0000;fill-opacity:1;fill-rule:nonzero;stroke:#ffffff;stroke-width:0.75;stroke-linecap:round;stroke-linejoin:round;stroke-miterlimit:10;stroke-opacity:1;stroke-dasharray:none"
           d="m 268.5963,200.4159 c 0,3.4356 -2.7851,6.2207 -6.2208,6.2207 -3.4356,0 -6.2207,-2.7851 -6.2207,-6.2207 0,-3.4357 2.7851,-6.2208 6.2207,-6.2208 3.4357,0 6.2208,2.7851 6.2208,6.2208 z"
           inkscape:connector-curvature="0" />
      </g>
      <g
         transform="matrix(1.25,0,0,1.25,67.94733,106.57996)"
         id="g4535">
        <path
           id="path4537"
           style="fill:#ff0000;fill-opacity:1;fill-rule:nonzero;stroke:#ffffff;stroke-width:0.75;stroke-linecap:round;stroke-linejoin:round;stroke-miterlimit:10;stroke-opacity:1;stroke-dasharray:none"
           d="m 292.5045,143.8337 c 0,3.3335 -2.7023,6.0359 -6.0359,6.0359 -3.3336,0 -6.036,-2.7024 -6.036,-6.0359 0,-3.3336 2.7024,-6.036 6.036,-6.036 3.3336,0 6.0359,2.7024 6.0359,6.036 z"
           inkscape:connector-curvature="0" />
      </g>
      <g
         transform="matrix(1.25,0,0,1.25,67.94733,106.57996)"
         id="g4539">
        <path
           id="path4541"
           style="fill:#ff0000;fill-opacity:1;fill-rule:nonzero;stroke:#ffffff;stroke-width:0.75;stroke-linecap:round;stroke-linejoin:round;stroke-miterlimit:10;stroke-opacity:1;stroke-dasharray:none"
           d="m 319.9509,186.9155 c 0,5.7062 -4.6258,10.332 -10.3319,10.332 -5.7062,0 -10.332,-4.6258 -10.332,-10.332 0,-5.7061 4.6258,-10.3319 10.332,-10.3319 5.7061,0 10.3319,4.6258 10.3319,10.3319 z"
           inkscape:connector-curvature="0" />
      </g>
      <g
         transform="matrix(1.25,0,0,1.25,67.94733,106.57996)"
         id="g4543">
        <path
           id="path4545"
           style="fill:#ff0000;fill-opacity:1;fill-rule:nonzero;stroke:#ffffff;stroke-width:0.75;stroke-linecap:round;stroke-linejoin:round;stroke-miterlimit:10;stroke-opacity:1;stroke-dasharray:none"
           d="m 226.6786,305.5612 c 0,8.9542 -7.2588,16.2131 -16.213,16.2131 -8.9542,0 -16.213,-7.2589 -16.213,-16.2131 0,-8.9542 7.2588,-16.213 16.213,-16.213 8.9542,0 16.213,7.2588 16.213,16.213 z"
           inkscape:connector-curvature="0" />
      </g>
      <g
         transform="matrix(1.25,0,0,1.25,67.94733,106.57996)"
         id="g4547">
        <path
           id="path4549"
           style="fill:#ff0000;fill-opacity:1;fill-rule:nonzero;stroke:#ffffff;stroke-width:0.75;stroke-linecap:round;stroke-linejoin:round;stroke-miterlimit:10;stroke-opacity:1;stroke-dasharray:none"
           d="m 411.5188,266.1392 c 0,8.5731 -6.9499,15.5231 -15.523,15.5231 -8.5732,0 -15.5231,-6.95 -15.5231,-15.5231 0,-8.5731 6.9499,-15.523 15.5231,-15.523 8.5731,0 15.523,6.9499 15.523,15.523 z"
           inkscape:connector-curvature="0" />
      </g>
      <g
         transform="matrix(1.25,0,0,1.25,67.94733,106.57996)"
         id="g4551">
        <path
           id="path4553"
           style="fill:#ff0000;fill-opacity:1;fill-rule:nonzero;stroke:#ffffff;stroke-width:0.75;stroke-linecap:round;stroke-linejoin:round;stroke-miterlimit:10;stroke-opacity:1;stroke-dasharray:none"
           d="m 416.819,266.1392 c 0,11.5003 -9.3229,20.8232 -20.8232,20.8232 -11.5003,0 -20.8232,-9.3229 -20.8232,-20.8232 0,-11.5003 9.3229,-20.8232 20.8232,-20.8232 11.5003,0 20.8232,9.3229 20.8232,20.8232 z"
           inkscape:connector-curvature="0" />
      </g>
      <g
         transform="matrix(1.25,0,0,1.25,67.94733,106.57996)"
         id="g4555">
        <path
           id="path4557"
           style="fill:#ff0000;fill-opacity:1;fill-rule:nonzero;stroke:#ffffff;stroke-width:0.75;stroke-linecap:round;stroke-linejoin:round;stroke-miterlimit:10;stroke-opacity:1;stroke-dasharray:none"
           d="m 434.8918,185.2374 c 0,4.6899 -3.8019,8.4918 -8.4918,8.4918 -4.6899,0 -8.4918,-3.8019 -8.4918,-8.4918 0,-4.6899 3.8019,-8.4917 8.4918,-8.4917 4.6899,0 8.4918,3.8018 8.4918,8.4917 z"
           inkscape:connector-curvature="0" />
      </g>
      <g
         transform="matrix(1.25,0,0,1.25,67.94733,106.57996)"
         id="g4559">
        <path
           id="path4561"
           style="fill:#ff0000;fill-opacity:1;fill-rule:nonzero;stroke:#ffffff;stroke-width:0.75;stroke-linecap:round;stroke-linejoin:round;stroke-miterlimit:10;stroke-opacity:1;stroke-dasharray:none"
           d="m 363.6144,124.5184 c 0,4.457 -3.613,8.07 -8.07,8.07 -4.457,0 -8.07,-3.613 -8.07,-8.07 0,-4.457 3.613,-8.07 8.07,-8.07 4.457,0 8.07,3.613 8.07,8.07 z"
           inkscape:connector-curvature="0" />
      </g>
      <g
         transform="matrix(1.25,0,0,1.25,67.94733,106.57996)"
         id="g4563">
        <path
           id="path4565"
           style="fill:#ff0000;fill-opacity:1;fill-rule:nonzero;stroke:#ffffff;stroke-width:0.75;stroke-linecap:round;stroke-linejoin:round;stroke-miterlimit:10;stroke-opacity:1;stroke-dasharray:none"
           d="m 330.0157,120.3431 c 0,11.7419 -9.5186,21.2605 -21.2605,21.2605 -11.7418,0 -21.2605,-9.5186 -21.2605,-21.2605 0,-11.7418 9.5187,-21.26052 21.2605,-21.26052 11.7419,0 21.2605,9.51872 21.2605,21.26052 z"
           inkscape:connector-curvature="0" />
      </g>
      <g
         transform="matrix(1.25,0,0,1.25,67.94733,106.57996)"
         id="g4567">
        <path
           id="path4569"
           style="fill:#ff0000;fill-opacity:1;fill-rule:nonzero;stroke:#ffffff;stroke-width:0.75;stroke-linecap:round;stroke-linejoin:round;stroke-miterlimit:10;stroke-opacity:1;stroke-dasharray:none"
           d="m 218.7181,101.4667 c 0,7.4463 -6.0364,13.4828 -13.4827,13.4828 -7.4464,0 -13.4828,-6.0365 -13.4828,-13.4828 0,-7.44638 6.0364,-13.48281 13.4828,-13.48281 7.4463,0 13.4827,6.03643 13.4827,13.48281 z"
           inkscape:connector-curvature="0" />
      </g>
      <g
         transform="matrix(1.25,0,0,1.25,67.94733,106.57996)"
         id="g4571">
        <path
           id="path4573"
           style="fill:#ff0000;fill-opacity:1;fill-rule:nonzero;stroke:#ffffff;stroke-width:0.75;stroke-linecap:round;stroke-linejoin:round;stroke-miterlimit:10;stroke-opacity:1;stroke-dasharray:none"
           d="m 384.0568,211.1623 c 0,13.2682 -10.756,24.0242 -24.0243,24.0242 -13.2682,0 -24.0242,-10.756 -24.0242,-24.0242 0,-13.2683 10.756,-24.0243 24.0242,-24.0243 13.2683,0 24.0243,10.756 24.0243,24.0243 z"
           inkscape:connector-curvature="0" />
      </g>
      <g
         transform="matrix(1.25,0,0,1.25,67.94733,106.57996)"
         id="g4575">
        <path
           id="path4577"
           style="fill:#ff0000;fill-opacity:1;fill-rule:nonzero;stroke:#ffffff;stroke-width:0.75;stroke-linecap:round;stroke-linejoin:round;stroke-miterlimit:10;stroke-opacity:1;stroke-dasharray:none"
           d="m 421.1302,144.7851 c 0,8.4564 -6.8553,15.3118 -15.3118,15.3118 -8.4565,0 -15.3118,-6.8554 -15.3118,-15.3118 0,-8.4565 6.8553,-15.3119 15.3118,-15.3119 8.4565,0 15.3118,6.8554 15.3118,15.3119 z"
           inkscape:connector-curvature="0" />
      </g>
      <g
         transform="matrix(1.25,0,0,1.25,67.94733,106.57996)"
         id="g4579">
        <path
           id="path4581"
           style="fill:#ff0000;fill-opacity:1;fill-rule:nonzero;stroke:#ffffff;stroke-width:0.75;stroke-linecap:round;stroke-linejoin:round;stroke-miterlimit:10;stroke-opacity:1;stroke-dasharray:none"
           d="m 154.0791,165.9582 c 0,9.803 -7.9469,17.7499 -17.7499,17.7499 -9.8029,0 -17.7498,-7.9469 -17.7498,-17.7499 0,-9.803 7.9469,-17.7498 17.7498,-17.7498 9.803,0 17.7499,7.9468 17.7499,17.7498 z"
           inkscape:connector-curvature="0" />
      </g>
      <g
         transform="matrix(1.25,0,0,1.25,67.94733,106.57996)"
         id="g4583">
        <path
           id="path4585"
           style="fill:#ff0000;fill-opacity:1;fill-rule:nonzero;stroke:#ffffff;stroke-width:0.75;stroke-linecap:round;stroke-linejoin:round;stroke-miterlimit:10;stroke-opacity:1;stroke-dasharray:none"
           d="m 210.9135,353.7075 c 0,14.3301 -11.6169,25.947 -25.9471,25.947 -14.3301,0 -25.947,-11.6169 -25.947,-25.947 0,-14.3302 11.6169,-25.9471 25.947,-25.9471 14.3302,0 25.9471,11.6169 25.9471,25.9471 z"
           inkscape:connector-curvature="0" />
      </g>
      <g
         transform="matrix(1.25,0,0,1.25,67.94733,106.57996)"
         id="g4587">
        <path
           id="path4589"
           style="fill:#ff0000;fill-opacity:1;fill-rule:nonzero;stroke:#ffffff;stroke-width:0.75;stroke-linecap:round;stroke-linejoin:round;stroke-miterlimit:10;stroke-opacity:1;stroke-dasharray:none"
           d="m 123.5797,270.0913 c 0,9.4881 -7.6916,17.1797 -17.1797,17.1797 -9.48809,0 -17.17969,-7.6916 -17.17969,-17.1797 0,-9.4881 7.6916,-17.1797 17.17969,-17.1797 9.4881,0 17.1797,7.6916 17.1797,17.1797 z"
           inkscape:connector-curvature="0" />
      </g>
      <g
         transform="matrix(1.25,0,0,1.25,67.94733,106.57996)"
         id="g4591">
        <path
           id="path4593"
           style="fill:#ff0000;fill-opacity:1;fill-rule:nonzero;stroke:#ffffff;stroke-width:0.75;stroke-linecap:round;stroke-linejoin:round;stroke-miterlimit:10;stroke-opacity:1;stroke-dasharray:none"
           d="m 285.394,334.2341 c 0,7.0388 -5.7061,12.745 -12.745,12.745 -7.039,0 -12.7451,-5.7062 -12.7451,-12.745 0,-7.0389 5.7061,-12.7451 12.7451,-12.7451 7.0389,0 12.745,5.7062 12.745,12.7451 z"
           inkscape:connector-curvature="0" />
      </g>
      <g
         transform="matrix(1.25,0,0,1.25,67.94733,106.57996)"
         id="g4595">
        <path
           id="path4597"
           style="fill:#ff0000;fill-opacity:1;fill-rule:nonzero;stroke:#ffffff;stroke-width:0.75;stroke-linecap:round;stroke-linejoin:round;stroke-miterlimit:10;stroke-opacity:1;stroke-dasharray:none"
           d="m 133.0203,388.1333 c 0,11.4791 -9.3055,20.7846 -20.7846,20.7846 -11.479,0 -20.78458,-9.3055 -20.78458,-20.7846 0,-11.479 9.30558,-20.7846 20.78458,-20.7846 11.4791,0 20.7846,9.3056 20.7846,20.7846 z"
           inkscape:connector-curvature="0" />
      </g>
      <g
         transform="matrix(1.25,0,0,1.25,67.94733,106.57996)"
         id="g4599">
        <path
           id="path4601"
           style="fill:#ff0000;fill-opacity:1;fill-rule:nonzero;stroke:#ffffff;stroke-width:0.75;stroke-linecap:round;stroke-linejoin:round;stroke-miterlimit:10;stroke-opacity:1;stroke-dasharray:none"
           d="m 359.0048,303.4216 c 0,4.4891 -3.6392,8.1283 -8.1284,8.1283 -4.4891,0 -8.1283,-3.6392 -8.1283,-8.1283 0,-4.4892 3.6392,-8.1284 8.1283,-8.1284 4.4892,0 8.1284,3.6392 8.1284,8.1284 z"
           inkscape:connector-curvature="0" />
      </g>
    </g>
  </g>
</svg>
