<?xml version="1.0" encoding="UTF-8" standalone="no"?>
<!-- Created with Inkscape (http://www.inkscape.org/) -->

<svg
   xmlns:dc="http://purl.org/dc/elements/1.1/"
   xmlns:cc="http://creativecommons.org/ns#"
   xmlns:rdf="http://www.w3.org/1999/02/22-rdf-syntax-ns#"
   xmlns:svg="http://www.w3.org/2000/svg"
   xmlns="http://www.w3.org/2000/svg"
   xmlns:xlink="http://www.w3.org/1999/xlink"
   xmlns:sodipodi="http://sodipodi.sourceforge.net/DTD/sodipodi-0.dtd"
   xmlns:inkscape="http://www.inkscape.org/namespaces/inkscape"
   width="1052.3622"
   height="744.09448"
   id="svg2"
   sodipodi:version="0.32"
   inkscape:version="0.48.2 r9819"
   version="1.0"
   sodipodi:docname="t-shirt_002.svg"
   inkscape:export-filename="/Users/oleg/Desktop/tshirt2.png"
   inkscape:export-xdpi="171.02667"
   inkscape:export-ydpi="171.02667">
  <defs
     id="defs4">
    <clipPath
       clipPathUnits="userSpaceOnUse"
       id="clipPath4373">
      <path
         d="M 0,0 504,0 504,504 0,504 0,0 z"
         id="path4375" />
    </clipPath>
    <clipPath
       clipPathUnits="userSpaceOnUse"
       id="clipPath4483">
      <path
         d="M 0,0 504,0 504,504 0,504 0,0 z"
         id="path4485" />
    </clipPath>
    <clipPath
       clipPathUnits="userSpaceOnUse"
       id="clipPath4503">
      <path
         d="m 59.04001,73.44 414.72,0 0,371.52 -414.72,0 0,-371.52 z"
         id="path4505" />
    </clipPath>
    <clipPath
       clipPathUnits="userSpaceOnUse"
       id="clipPath3983">
      <path
         d="M 0,0 504,0 504,504 0,504 0,0 z"
         id="path3985" />
    </clipPath>
    <clipPath
       clipPathUnits="userSpaceOnUse"
       id="clipPath4093">
      <path
         d="M 0,0 504,0 504,504 0,504 0,0 z"
         id="path4095" />
    </clipPath>
    <clipPath
       clipPathUnits="userSpaceOnUse"
       id="clipPath4113">
      <path
         d="m 59.04001,73.44 414.72,0 0,371.52 -414.72,0 0,-371.52 z"
         id="path4115" />
    </clipPath>
  </defs>
  <sodipodi:namedview
     id="base"
     pagecolor="#ffffff"
     bordercolor="#666666"
     borderopacity="1.0"
     gridtolerance="10000"
     guidetolerance="10000"
     objecttolerance="10000"
     inkscape:pageopacity="0.0"
     inkscape:pageshadow="2"
     inkscape:zoom="7.2524414"
     inkscape:cx="316.64432"
     inkscape:cy="368.32672"
     inkscape:document-units="pt"
     inkscape:current-layer="layer2"
     width="841.88975pt"
     height="595.27559pt"
     inkscape:window-width="1019"
     inkscape:window-height="857"
     inkscape:window-x="411"
     inkscape:window-y="97"
     showgrid="true"
     units="pt"
     grid_units="pt"
     inkscape:object-bbox="true"
     inkscape:object-points="true"
     inkscape:object-nodes="true"
     inkscape:grid-points="true"
     inkscape:guide-points="true"
     inkscape:window-maximized="0"
     inkscape:snap-global="false">
    <inkscape:grid
       id="GridFromPre046Settings"
       type="xygrid"
       originx="0px"
       originy="0px"
       spacingx="2pt"
       spacingy="2pt"
       color="#0000ff"
       empcolor="#0000ff"
       opacity="0.2"
       empopacity="0.4"
       empspacing="5" />
  </sodipodi:namedview>
  <metadata
     id="metadata7">
    <rdf:RDF>
      <cc:Work
         rdf:about="">
        <dc:format>image/svg+xml</dc:format>
        <dc:type
           rdf:resource="http://purl.org/dc/dcmitype/StillImage" />
        <dc:title></dc:title>
        <dc:date>20070219</dc:date>
        <dc:creator>
          <cc:Agent>
            <dc:title>Francis Jacquerye</dc:title>
          </cc:Agent>
        </dc:creator>
        <cc:license
           rdf:resource="http://web.resource.org/cc/PublicDomain" />
        <dc:rights>
          <cc:Agent>
            <dc:title>Public Domain</dc:title>
          </cc:Agent>
        </dc:rights>
        <dc:publisher>
          <cc:Agent>
            <dc:title />
          </cc:Agent>
        </dc:publisher>
        <dc:source>http://1sd.org/uploads/Images/t-shirt_template.svg </dc:source>
        <dc:subject>
          <rdf:Bag>
            <rdf:li>SVG</rdf:li>
            <rdf:li>t-shirt</rdf:li>
            <rdf:li>template</rdf:li>
            <rdf:li>vector</rdf:li>
            <rdf:li>vectorial</rdf:li>
          </rdf:Bag>
        </dc:subject>
        <dc:description>I could'nt find any existing template so I decided to make one</dc:description>
      </cc:Work>
      <cc:License
         rdf:about="http://web.resource.org/cc/PublicDomain">
        <cc:permits
           rdf:resource="http://web.resource.org/cc/Reproduction" />
        <cc:permits
           rdf:resource="http://web.resource.org/cc/Distribution" />
        <cc:permits
           rdf:resource="http://web.resource.org/cc/DerivativeWorks" />
      </cc:License>
    </rdf:RDF>
  </metadata>
  <g
     inkscape:groupmode="layer"
     id="layer2"
     inkscape:label="Vector">
    <path
       style="fill:none;fill-opacity:0.75;fill-rule:evenodd;stroke:black;stroke-width:1px;stroke-linecap:butt;stroke-linejoin:miter;stroke-opacity:1"
       d="M 357 244.59375 C 357 244.59375 342 252.09375 324.5 252.09375 C 307.6833 252.09375 295.38169 245.72153 294.4375 245.21875 C 294.34033 246.25713 293.97837 250.93341 294.59375 256.875 C 301.44527 259.45256 311.55194 262.09375 324.375 262.09375 C 338.38326 262.09375 350.08632 258.94835 357.65625 256.1875 C 357.88755 249.99743 357.16162 245.47547 357.125 245.25 C 356.9858 244.86031 357 244.59375 357 244.59375 z M 357.25 245.53125 C 357.33685 245.71943 357.47065 245.92602 357.625 246.15625 C 357.46875 245.92187 357.33789 245.72168 357.25 245.53125 z M 358.21875 246.90625 C 358.46362 247.17366 358.77243 247.45798 359.125 247.75 C 358.77344 247.45703 358.46289 247.1748 358.21875 246.90625 z M 359.125 247.75 C 359.46722 248.03345 359.85098 248.32705 360.3125 248.625 C 359.85158 248.32652 359.46644 248.03453 359.125 247.75 z M 284.53125 252.0625 C 284.53125 252.0625 284.5 252.09375 284.5 252.09375 C 284.50036 252.09297 284.52967 252.12493 284.53125 252.125 C 284.52863 252.10417 284.53386 252.08335 284.53125 252.0625 z "
       id="path1982" />
    <path
       style="fill:none;fill-opacity:0.75;fill-rule:evenodd;stroke:black;stroke-width:1px;stroke-linecap:butt;stroke-linejoin:miter;stroke-opacity:1"
       d="M 294.25,245.125 C 294.25,245.125 292.70441,247.98495 289.5,249.59375 C 284.81636,251.94521 284.83125,251.92922 284.8125,251.9375 L 284.71875,251.9375 L 284.6875,251.9375 L 284.53125,252.0625 C 288.49711,283.68779 302,299.59375 327,299.59375 C 368.35604,299.59375 367.09747,254.95253 367,252.53125 L 366.28125,252.5 C 366.70729,252.27792 367,252.09375 367,252.09375 C 367,252.09375 367,252.09375 362,249.59375 C 358.875,248.03125 357.68945,246.4834 357.25,245.53125 C 357.21749,245.46082 357.21249,245.40726 357.1875,245.34375 L 357.1875,245.15625 L 357.125,245.125 C 357.125,245.125 364.5,289.59375 327,289.59375 C 291.01444,289.59375 294.1243,248.56577 294.4375,245.21875 C 294.38249,245.19147 294.25,245.125 294.25,245.125 z "
       id="path1984" />
    <path
       style="fill:none;fill-opacity:0.75;fill-rule:evenodd;stroke:black;stroke-width:1px;stroke-linecap:butt;stroke-linejoin:miter;stroke-opacity:1"
       d="M 284.625,251.96875 L 219.5,267.09375 L 232,309.59375 L 237,527.09375 L 414.5,527.09375 L 412,324.59375 L 429.5,264.59375 L 367,252.09375 C 367,252.09375 366.70729,252.27792 366.28125,252.5 L 367,252.53125 C 367.09747,254.95253 368.35604,299.59375 327,299.59375 C 302,299.59375 288.49711,283.68779 284.53125,252.0625 L 284.625,251.96875 z "
       id="path2051" />
    <path
       style="fill:none;fill-opacity:0.75;fill-rule:evenodd;stroke:black;stroke-width:1px;stroke-linecap:butt;stroke-linejoin:miter;stroke-opacity:1"
       d="M 219.5,267.09375 L 152.8125,292.375 L 175.4375,369.28125 L 233.3125,367.03125 L 233.3125,367 L 232,309.59375 L 219.5,267.09375 z "
       id="path1994" />
    <path
       style="fill:none;fill-opacity:0.75;fill-rule:evenodd;stroke:black;stroke-width:1px;stroke-linecap:butt;stroke-linejoin:miter;stroke-opacity:1"
       d="M 429.46875,264.65625 L 412,324.59375 L 412.53125,366.90625 L 475.78125,364.875 L 493.28125,285.09375 L 429.46875,264.65625 z "
       id="path1996" />
    <path
       style="fill:none;fill-opacity:0.75;fill-rule:evenodd;stroke:black;stroke-width:1px;stroke-linecap:butt;stroke-linejoin:miter;stroke-opacity:1"
       d="M 152.8125,292.375 L 147,294.59375 L 167,369.59375 L 175.4375,369.28125 L 152.8125,292.375 z "
       id="path2004" />
    <path
       style="fill:none;fill-opacity:0.75;fill-rule:evenodd;stroke:black;stroke-width:1px;stroke-linecap:butt;stroke-linejoin:miter;stroke-opacity:1"
       d="M 493.28125,285.09375 L 475.78125,364.875 L 484.5,364.59375 L 499.5,287.09375 L 493.28125,285.09375 z "
       id="path2009" />
    <path
       style="fill:none;fill-opacity:0.75;fill-rule:evenodd;stroke:black;stroke-width:1px;stroke-linecap:butt;stroke-linejoin:miter;stroke-opacity:1"
       d="M 367,252.09375 C 367,252.09375 366.70729,252.27792 366.28125,252.5 L 366.75,252.53125 L 367.03125,252.09375 L 367,252.09375 z M 357.625,256.1875 C 350.05432,258.94602 338.36706,262.09375 324.375,262.09375 C 311.56955,262.09375 301.47615,259.44925 294.625,256.875 C 295.98381,270.08245 302.16267,289.59375 327,289.59375 C 352.34079,289.59375 357.14754,269.35061 357.625,256.1875 z "
       id="path2022" />
    <path
       sodipodi:nodetypes="cscscsczc"
       id="path2024"
       d="M 822,252.09448 C 822,252.09448 821.99588,252.1027 817,249.59448 C 813.79559,247.98568 812.23789,245.12235 812.23789,245.12235 C 812.23789,245.12235 799.5,252.09448 782,252.09448 C 764.5,252.09448 749.5,244.59448 749.5,244.59448 C 749.5,244.59448 749.5,247.09448 744.5,249.59448 C 739.5,252.09448 739.5,252.09448 739.5,252.09448 C 739.5,252.09448 757.11043,262.09442 782.11043,262.09442 C 807.11043,262.09442 821.94452,251.97354 822,252.09448 z "
       style="fill:none;fill-opacity:0.75;fill-rule:evenodd;stroke:black;stroke-width:1px;stroke-linecap:butt;stroke-linejoin:miter;stroke-opacity:1" />
    <path
       style="fill:none;fill-opacity:0.75;fill-rule:evenodd;stroke:black;stroke-width:1px;stroke-linecap:butt;stroke-linejoin:miter;stroke-opacity:1"
       d="M 821.6875 251.9375 C 821.68875 251.93805 822 252.09375 822 252.09375 C 821.94452 251.97281 807.12502 262.09375 782.125 262.09375 C 757.125 262.09375 739.5 252.09375 739.5 252.09375 L 677 264.59375 L 694.5 324.59375 L 692 527.09375 L 869.5 527.09375 L 874.5 309.59375 L 887 267.09375 L 821.6875 251.9375 z M 785.53125 252 L 779.375 252.03125 C 780.24394 252.06753 781.11671 252.09375 782 252.09375 C 783.2044 252.09375 784.37456 252.0615 785.53125 252 z "
       id="path2028" />
    <path
       id="path2030"
       d="M 887,267.09375 L 953.6875,292.375 L 931.0625,369.28125 L 873.1875,367.03125 L 873.1875,367 L 874.5,309.59375 L 887,267.09375 z "
       style="fill:none;fill-opacity:0.75;fill-rule:evenodd;stroke:black;stroke-width:1px;stroke-linecap:butt;stroke-linejoin:miter;stroke-opacity:1" />
    <path
       id="path2032"
       d="M 677.03125,264.65625 L 694.5,324.59375 L 693.96875,366.90625 L 630.71875,364.875 L 613.21875,285.09375 L 677.03125,264.65625 z "
       style="fill:none;fill-opacity:0.75;fill-rule:evenodd;stroke:black;stroke-width:1px;stroke-linecap:butt;stroke-linejoin:miter;stroke-opacity:1" />
    <path
       id="path2034"
       d="M 953.6875,292.375 L 959.5,294.59375 L 939.5,369.59375 L 931.0625,369.28125 L 953.6875,292.375 z "
       style="fill:none;fill-opacity:0.75;fill-rule:evenodd;stroke:black;stroke-width:1px;stroke-linecap:butt;stroke-linejoin:miter;stroke-opacity:1" />
    <path
       id="path2036"
       d="M 613.21875,285.09375 L 630.71875,364.875 L 622,364.59375 L 607,287.09375 L 613.21875,285.09375 z "
       style="fill:none;fill-opacity:0.75;fill-rule:evenodd;stroke:black;stroke-width:1px;stroke-linecap:butt;stroke-linejoin:miter;stroke-opacity:1" />
    <image
       y="331.69864"
       x="739.5"
       id="image3372"
       xlink:href="file:///Users/oleg/Documents/Open%20Data/OpenData.ch%20Logo/Screen%20RGB/Red/Pixel%20Large%20(PNG)/opendata-logo-RGB-onlyicon-nocircle-large.png"
       height="99.895836"
       width="87.5" />
    <image
       y="325.94208"
       x="347.5"
       id="image3466"
       xlink:href="file:///Users/oleg/Documents/Open%20Data/OpenData.ch%20Logo/Screen%20RGB/Red/Pixel%20Large%20(PNG)/opendata-logo-RGB-onlytype-large.png"
       height="45.652405"
       width="45.652405" />
    <text
       xml:space="preserve"
       style="font-size:6.99530602000000012px;font-style:normal;font-variant:normal;font-weight:normal;font-stretch:normal;text-align:start;line-height:125%;letter-spacing:0px;word-spacing:0px;writing-mode:lr-tb;text-anchor:start;fill:#e61414;fill-opacity:1;stroke:none;font-family:Arial Rounded MT Bold;-inkscape-font-specification:'Arial Rounded MT Bold,'"
       x="758.96045"
       y="288.83591"
       id="text3528"
       sodipodi:linespacing="125%"
       transform="scale(0.94207794,1.0614833)"><tspan
         sodipodi:role="line"
         id="tspan3530"
         x="758.96045"
         y="288.83591">MAKE.OPENDATA.CH__BERN__27.04.2012</tspan></text>
    <g
       id="layer1"
       inkscape:label="Layer 1"
       transform="matrix(0.18474309,0,0,0.18474309,231.50034,277.86062)"
       style="fill:#e61414;fill-opacity:1;stroke:#ffffff;stroke-width:1.3532306">
      <g
         id="g5009"
         style="fill:#e61414;fill-opacity:1;stroke:#ffffff;stroke-width:1.3532306">
        <g
           id="g4507"
           transform="matrix(1.25,0,0,1.25,67.94733,106.57996)"
           style="fill:#e61414;fill-opacity:1;stroke:#ffffff;stroke-width:1.0825845">
          <path
             inkscape:connector-curvature="0"
             d="m 390.0731,179.6273 c 0,19.8823 -16.1177,36 -36,36 -19.8823,0 -36,-16.1177 -36,-36 0,-19.8822 16.1177,-36 36,-36 19.8823,0 36,16.1178 36,36 z"
             style="fill:#e61414;fill-opacity:1;fill-rule:nonzero;stroke:#ffffff;stroke-width:1.0825845;stroke-linecap:round;stroke-linejoin:round;stroke-miterlimit:10;stroke-opacity:1;stroke-dasharray:none"
             id="path4509" />
        </g>
        <path
           id="path4513"
           style="fill:#e61414;fill-opacity:1;fill-rule:nonzero;stroke:#ffffff;stroke-width:1.3532306;stroke-linecap:round;stroke-linejoin:round;stroke-miterlimit:10;stroke-opacity:1;stroke-dasharray:none"
           d="m 400.07483,427.27984 c 0,20.994 -17.019,38.01287 -38.01288,38.01287 -20.99387,0 -38.01287,-17.01887 -38.01287,-38.01287 0,-20.99388 17.019,-38.01275 38.01287,-38.01275 20.99388,0 38.01288,17.01887 38.01288,38.01275 z"
           inkscape:connector-curvature="0" />
        <g
           id="g4515"
           transform="matrix(1.25,0,0,1.25,67.94733,106.57996)"
           style="fill:#e61414;fill-opacity:1;stroke:#ffffff;stroke-width:1.0825845">
          <path
             inkscape:connector-curvature="0"
             d="m 313.6391,218.5592 c 0,10.4263 -8.4522,18.8785 -18.8785,18.8785 -10.4263,0 -18.8785,-8.4522 -18.8785,-18.8785 0,-10.4263 8.4522,-18.8785 18.8785,-18.8785 10.4263,0 18.8785,8.4522 18.8785,18.8785 z"
             style="fill:#e61414;fill-opacity:1;fill-rule:nonzero;stroke:#ffffff;stroke-width:1.0825845;stroke-linecap:round;stroke-linejoin:round;stroke-miterlimit:10;stroke-opacity:1;stroke-dasharray:none"
             id="path4517" />
        </g>
        <g
           id="g4519"
           transform="matrix(1.25,0,0,1.25,67.94733,106.57996)"
           style="fill:#e61414;fill-opacity:1;stroke:#ffffff;stroke-width:1.0825845">
          <path
             inkscape:connector-curvature="0"
             d="m 235.7763,182.3751 c 0,3.1924 -2.5879,5.7803 -5.7803,5.7803 -3.1924,0 -5.7803,-2.5879 -5.7803,-5.7803 0,-3.1924 2.5879,-5.7803 5.7803,-5.7803 3.1924,0 5.7803,2.5879 5.7803,5.7803 z"
             style="fill:#e61414;fill-opacity:1;fill-rule:nonzero;stroke:#ffffff;stroke-width:1.0825845;stroke-linecap:round;stroke-linejoin:round;stroke-miterlimit:10;stroke-opacity:1;stroke-dasharray:none"
             id="path4521" />
        </g>
        <g
           id="g4523"
           transform="matrix(1.25,0,0,1.25,67.94733,106.57996)"
           style="fill:#e61414;fill-opacity:1;stroke:#ffffff;stroke-width:1.0825845">
          <path
             inkscape:connector-curvature="0"
             d="m 305.0056,166.7949 c 0,6.4987 -5.2682,11.767 -11.767,11.767 -6.4987,0 -11.767,-5.2683 -11.767,-11.767 0,-6.4988 5.2683,-11.767 11.767,-11.767 6.4988,0 11.767,5.2682 11.767,11.767 z"
             style="fill:#e61414;fill-opacity:1;fill-rule:nonzero;stroke:#ffffff;stroke-width:1.0825845;stroke-linecap:round;stroke-linejoin:round;stroke-miterlimit:10;stroke-opacity:1;stroke-dasharray:none"
             id="path4525" />
        </g>
        <g
           id="g4527"
           transform="matrix(1.25,0,0,1.25,67.94733,106.57996)"
           style="fill:#e61414;fill-opacity:1;stroke:#ffffff;stroke-width:1.0825845">
          <path
             inkscape:connector-curvature="0"
             d="m 257.8244,211.5089 c 0,3.2014 -2.5953,5.7967 -5.7967,5.7967 -3.2014,0 -5.7966,-2.5953 -5.7966,-5.7967 0,-3.2013 2.5952,-5.7966 5.7966,-5.7966 3.2014,0 5.7967,2.5953 5.7967,5.7966 z"
             style="fill:#e61414;fill-opacity:1;fill-rule:nonzero;stroke:#ffffff;stroke-width:1.0825845;stroke-linecap:round;stroke-linejoin:round;stroke-miterlimit:10;stroke-opacity:1;stroke-dasharray:none"
             id="path4529" />
        </g>
        <g
           id="g4531"
           transform="matrix(1.25,0,0,1.25,67.94733,106.57996)"
           style="fill:#e61414;fill-opacity:1;stroke:#ffffff;stroke-width:1.0825845">
          <path
             inkscape:connector-curvature="0"
             d="m 268.5963,200.4159 c 0,3.4356 -2.7851,6.2207 -6.2208,6.2207 -3.4356,0 -6.2207,-2.7851 -6.2207,-6.2207 0,-3.4357 2.7851,-6.2208 6.2207,-6.2208 3.4357,0 6.2208,2.7851 6.2208,6.2208 z"
             style="fill:#e61414;fill-opacity:1;fill-rule:nonzero;stroke:#ffffff;stroke-width:1.0825845;stroke-linecap:round;stroke-linejoin:round;stroke-miterlimit:10;stroke-opacity:1;stroke-dasharray:none"
             id="path4533" />
        </g>
        <g
           id="g4535"
           transform="matrix(1.25,0,0,1.25,67.94733,106.57996)"
           style="fill:#e61414;fill-opacity:1;stroke:#ffffff;stroke-width:1.0825845">
          <path
             inkscape:connector-curvature="0"
             d="m 292.5045,143.8337 c 0,3.3335 -2.7023,6.0359 -6.0359,6.0359 -3.3336,0 -6.036,-2.7024 -6.036,-6.0359 0,-3.3336 2.7024,-6.036 6.036,-6.036 3.3336,0 6.0359,2.7024 6.0359,6.036 z"
             style="fill:#e61414;fill-opacity:1;fill-rule:nonzero;stroke:#ffffff;stroke-width:1.0825845;stroke-linecap:round;stroke-linejoin:round;stroke-miterlimit:10;stroke-opacity:1;stroke-dasharray:none"
             id="path4537" />
        </g>
        <g
           id="g4539"
           transform="matrix(1.25,0,0,1.25,67.94733,106.57996)"
           style="fill:#e61414;fill-opacity:1;stroke:#ffffff;stroke-width:1.0825845">
          <path
             inkscape:connector-curvature="0"
             d="m 319.9509,186.9155 c 0,5.7062 -4.6258,10.332 -10.3319,10.332 -5.7062,0 -10.332,-4.6258 -10.332,-10.332 0,-5.7061 4.6258,-10.3319 10.332,-10.3319 5.7061,0 10.3319,4.6258 10.3319,10.3319 z"
             style="fill:#e61414;fill-opacity:1;fill-rule:nonzero;stroke:#ffffff;stroke-width:1.0825845;stroke-linecap:round;stroke-linejoin:round;stroke-miterlimit:10;stroke-opacity:1;stroke-dasharray:none"
             id="path4541" />
        </g>
        <g
           id="g4543"
           transform="matrix(1.25,0,0,1.25,67.94733,106.57996)"
           style="fill:#e61414;fill-opacity:1;stroke:#ffffff;stroke-width:1.0825845">
          <path
             inkscape:connector-curvature="0"
             d="m 226.6786,305.5612 c 0,8.9542 -7.2588,16.2131 -16.213,16.2131 -8.9542,0 -16.213,-7.2589 -16.213,-16.2131 0,-8.9542 7.2588,-16.213 16.213,-16.213 8.9542,0 16.213,7.2588 16.213,16.213 z"
             style="fill:#e61414;fill-opacity:1;fill-rule:nonzero;stroke:#ffffff;stroke-width:1.0825845;stroke-linecap:round;stroke-linejoin:round;stroke-miterlimit:10;stroke-opacity:1;stroke-dasharray:none"
             id="path4545" />
        </g>
        <g
           id="g4547"
           transform="matrix(1.25,0,0,1.25,67.94733,106.57996)"
           style="fill:#e61414;fill-opacity:1;stroke:#ffffff;stroke-width:1.0825845">
          <path
             inkscape:connector-curvature="0"
             d="m 411.5188,266.1392 c 0,8.5731 -6.9499,15.5231 -15.523,15.5231 -8.5732,0 -15.5231,-6.95 -15.5231,-15.5231 0,-8.5731 6.9499,-15.523 15.5231,-15.523 8.5731,0 15.523,6.9499 15.523,15.523 z"
             style="fill:#e61414;fill-opacity:1;fill-rule:nonzero;stroke:#ffffff;stroke-width:1.0825845;stroke-linecap:round;stroke-linejoin:round;stroke-miterlimit:10;stroke-opacity:1;stroke-dasharray:none"
             id="path4549" />
        </g>
        <g
           id="g4551"
           transform="matrix(1.25,0,0,1.25,67.94733,106.57996)"
           style="fill:#e61414;fill-opacity:1;stroke:#ffffff;stroke-width:1.0825845">
          <path
             inkscape:connector-curvature="0"
             d="m 416.819,266.1392 c 0,11.5003 -9.3229,20.8232 -20.8232,20.8232 -11.5003,0 -20.8232,-9.3229 -20.8232,-20.8232 0,-11.5003 9.3229,-20.8232 20.8232,-20.8232 11.5003,0 20.8232,9.3229 20.8232,20.8232 z"
             style="fill:#e61414;fill-opacity:1;fill-rule:nonzero;stroke:#ffffff;stroke-width:1.0825845;stroke-linecap:round;stroke-linejoin:round;stroke-miterlimit:10;stroke-opacity:1;stroke-dasharray:none"
             id="path4553" />
        </g>
        <g
           id="g4555"
           transform="matrix(1.25,0,0,1.25,67.94733,106.57996)"
           style="fill:#e61414;fill-opacity:1;stroke:#ffffff;stroke-width:1.0825845">
          <path
             inkscape:connector-curvature="0"
             d="m 434.8918,185.2374 c 0,4.6899 -3.8019,8.4918 -8.4918,8.4918 -4.6899,0 -8.4918,-3.8019 -8.4918,-8.4918 0,-4.6899 3.8019,-8.4917 8.4918,-8.4917 4.6899,0 8.4918,3.8018 8.4918,8.4917 z"
             style="fill:#e61414;fill-opacity:1;fill-rule:nonzero;stroke:#ffffff;stroke-width:1.0825845;stroke-linecap:round;stroke-linejoin:round;stroke-miterlimit:10;stroke-opacity:1;stroke-dasharray:none"
             id="path4557" />
        </g>
        <g
           id="g4559"
           transform="matrix(1.25,0,0,1.25,67.94733,106.57996)"
           style="fill:#e61414;fill-opacity:1;stroke:#ffffff;stroke-width:1.0825845">
          <path
             inkscape:connector-curvature="0"
             d="m 363.6144,124.5184 c 0,4.457 -3.613,8.07 -8.07,8.07 -4.457,0 -8.07,-3.613 -8.07,-8.07 0,-4.457 3.613,-8.07 8.07,-8.07 4.457,0 8.07,3.613 8.07,8.07 z"
             style="fill:#e61414;fill-opacity:1;fill-rule:nonzero;stroke:#ffffff;stroke-width:1.0825845;stroke-linecap:round;stroke-linejoin:round;stroke-miterlimit:10;stroke-opacity:1;stroke-dasharray:none"
             id="path4561" />
        </g>
        <g
           id="g4563"
           transform="matrix(1.25,0,0,1.25,67.94733,106.57996)"
           style="fill:#e61414;fill-opacity:1;stroke:#ffffff;stroke-width:1.0825845">
          <path
             inkscape:connector-curvature="0"
             d="m 330.0157,120.3431 c 0,11.7419 -9.5186,21.2605 -21.2605,21.2605 -11.7418,0 -21.2605,-9.5186 -21.2605,-21.2605 0,-11.7418 9.5187,-21.26052 21.2605,-21.26052 11.7419,0 21.2605,9.51872 21.2605,21.26052 z"
             style="fill:#e61414;fill-opacity:1;fill-rule:nonzero;stroke:#ffffff;stroke-width:1.0825845;stroke-linecap:round;stroke-linejoin:round;stroke-miterlimit:10;stroke-opacity:1;stroke-dasharray:none"
             id="path4565" />
        </g>
        <g
           id="g4567"
           transform="matrix(1.25,0,0,1.25,67.94733,106.57996)"
           style="fill:#e61414;fill-opacity:1;stroke:#ffffff;stroke-width:1.0825845">
          <path
             inkscape:connector-curvature="0"
             d="m 218.7181,101.4667 c 0,7.4463 -6.0364,13.4828 -13.4827,13.4828 -7.4464,0 -13.4828,-6.0365 -13.4828,-13.4828 0,-7.44638 6.0364,-13.48281 13.4828,-13.48281 7.4463,0 13.4827,6.03643 13.4827,13.48281 z"
             style="fill:#e61414;fill-opacity:1;fill-rule:nonzero;stroke:#ffffff;stroke-width:1.0825845;stroke-linecap:round;stroke-linejoin:round;stroke-miterlimit:10;stroke-opacity:1;stroke-dasharray:none"
             id="path4569" />
        </g>
        <g
           id="g4571"
           transform="matrix(1.25,0,0,1.25,67.94733,106.57996)"
           style="fill:#e61414;fill-opacity:1;stroke:#ffffff;stroke-width:1.0825845">
          <path
             inkscape:connector-curvature="0"
             d="m 384.0568,211.1623 c 0,13.2682 -10.756,24.0242 -24.0243,24.0242 -13.2682,0 -24.0242,-10.756 -24.0242,-24.0242 0,-13.2683 10.756,-24.0243 24.0242,-24.0243 13.2683,0 24.0243,10.756 24.0243,24.0243 z"
             style="fill:#e61414;fill-opacity:1;fill-rule:nonzero;stroke:#ffffff;stroke-width:1.0825845;stroke-linecap:round;stroke-linejoin:round;stroke-miterlimit:10;stroke-opacity:1;stroke-dasharray:none"
             id="path4573" />
        </g>
        <g
           id="g4575"
           transform="matrix(1.25,0,0,1.25,67.94733,106.57996)"
           style="fill:#e61414;fill-opacity:1;stroke:#ffffff;stroke-width:1.0825845">
          <path
             inkscape:connector-curvature="0"
             d="m 421.1302,144.7851 c 0,8.4564 -6.8553,15.3118 -15.3118,15.3118 -8.4565,0 -15.3118,-6.8554 -15.3118,-15.3118 0,-8.4565 6.8553,-15.3119 15.3118,-15.3119 8.4565,0 15.3118,6.8554 15.3118,15.3119 z"
             style="fill:#e61414;fill-opacity:1;fill-rule:nonzero;stroke:#ffffff;stroke-width:1.0825845;stroke-linecap:round;stroke-linejoin:round;stroke-miterlimit:10;stroke-opacity:1;stroke-dasharray:none"
             id="path4577" />
        </g>
        <g
           id="g4579"
           transform="matrix(1.25,0,0,1.25,67.94733,106.57996)"
           style="fill:#e61414;fill-opacity:1;stroke:#ffffff;stroke-width:1.0825845">
          <path
             inkscape:connector-curvature="0"
             d="m 154.0791,165.9582 c 0,9.803 -7.9469,17.7499 -17.7499,17.7499 -9.8029,0 -17.7498,-7.9469 -17.7498,-17.7499 0,-9.803 7.9469,-17.7498 17.7498,-17.7498 9.803,0 17.7499,7.9468 17.7499,17.7498 z"
             style="fill:#e61414;fill-opacity:1;fill-rule:nonzero;stroke:#ffffff;stroke-width:1.0825845;stroke-linecap:round;stroke-linejoin:round;stroke-miterlimit:10;stroke-opacity:1;stroke-dasharray:none"
             id="path4581" />
        </g>
        <g
           id="g4583"
           transform="matrix(1.25,0,0,1.25,67.94733,106.57996)"
           style="fill:#e61414;fill-opacity:1;stroke:#ffffff;stroke-width:1.0825845">
          <path
             inkscape:connector-curvature="0"
             d="m 210.9135,353.7075 c 0,14.3301 -11.6169,25.947 -25.9471,25.947 -14.3301,0 -25.947,-11.6169 -25.947,-25.947 0,-14.3302 11.6169,-25.9471 25.947,-25.9471 14.3302,0 25.9471,11.6169 25.9471,25.9471 z"
             style="fill:#e61414;fill-opacity:1;fill-rule:nonzero;stroke:#ffffff;stroke-width:1.0825845;stroke-linecap:round;stroke-linejoin:round;stroke-miterlimit:10;stroke-opacity:1;stroke-dasharray:none"
             id="path4585" />
        </g>
        <g
           id="g4587"
           transform="matrix(1.25,0,0,1.25,67.94733,106.57996)"
           style="fill:#e61414;fill-opacity:1;stroke:#ffffff;stroke-width:1.0825845">
          <path
             inkscape:connector-curvature="0"
             d="m 123.5797,270.0913 c 0,9.4881 -7.6916,17.1797 -17.1797,17.1797 -9.48809,0 -17.17969,-7.6916 -17.17969,-17.1797 0,-9.4881 7.6916,-17.1797 17.17969,-17.1797 9.4881,0 17.1797,7.6916 17.1797,17.1797 z"
             style="fill:#e61414;fill-opacity:1;fill-rule:nonzero;stroke:#ffffff;stroke-width:1.0825845;stroke-linecap:round;stroke-linejoin:round;stroke-miterlimit:10;stroke-opacity:1;stroke-dasharray:none"
             id="path4589" />
        </g>
        <g
           id="g4591"
           transform="matrix(1.25,0,0,1.25,67.94733,106.57996)"
           style="fill:#e61414;fill-opacity:1;stroke:#ffffff;stroke-width:1.0825845">
          <path
             inkscape:connector-curvature="0"
             d="m 285.394,334.2341 c 0,7.0388 -5.7061,12.745 -12.745,12.745 -7.039,0 -12.7451,-5.7062 -12.7451,-12.745 0,-7.0389 5.7061,-12.7451 12.7451,-12.7451 7.0389,0 12.745,5.7062 12.745,12.7451 z"
             style="fill:#e61414;fill-opacity:1;fill-rule:nonzero;stroke:#ffffff;stroke-width:1.0825845;stroke-linecap:round;stroke-linejoin:round;stroke-miterlimit:10;stroke-opacity:1;stroke-dasharray:none"
             id="path4593" />
        </g>
        <g
           id="g4595"
           transform="matrix(1.25,0,0,1.25,67.94733,106.57996)"
           style="fill:#e61414;fill-opacity:1;stroke:#ffffff;stroke-width:1.0825845">
          <path
             inkscape:connector-curvature="0"
             d="m 133.0203,388.1333 c 0,11.4791 -9.3055,20.7846 -20.7846,20.7846 -11.479,0 -20.78458,-9.3055 -20.78458,-20.7846 0,-11.479 9.30558,-20.7846 20.78458,-20.7846 11.4791,0 20.7846,9.3056 20.7846,20.7846 z"
             style="fill:#e61414;fill-opacity:1;fill-rule:nonzero;stroke:#ffffff;stroke-width:1.0825845;stroke-linecap:round;stroke-linejoin:round;stroke-miterlimit:10;stroke-opacity:1;stroke-dasharray:none"
             id="path4597" />
        </g>
        <g
           id="g4599"
           transform="matrix(1.25,0,0,1.25,67.94733,106.57996)"
           style="fill:#e61414;fill-opacity:1;stroke:#ffffff;stroke-width:1.0825845">
          <path
             inkscape:connector-curvature="0"
             d="m 359.0048,303.4216 c 0,4.4891 -3.6392,8.1283 -8.1284,8.1283 -4.4891,0 -8.1283,-3.6392 -8.1283,-8.1283 0,-4.4892 3.6392,-8.1284 8.1283,-8.1284 4.4892,0 8.1284,3.6392 8.1284,8.1284 z"
             style="fill:#e61414;fill-opacity:1;fill-rule:nonzero;stroke:#ffffff;stroke-width:1.0825845;stroke-linecap:round;stroke-linejoin:round;stroke-miterlimit:10;stroke-opacity:1;stroke-dasharray:none"
             id="path4601" />
        </g>
      </g>
    </g>
    <text
       transform="scale(0.94207794,1.0614833)"
       sodipodi:linespacing="125%"
       id="text5418"
       y="373.68884"
       x="281.37289"
       style="font-size:2px;font-style:normal;font-variant:normal;font-weight:normal;font-stretch:normal;text-align:start;line-height:125%;letter-spacing:0px;word-spacing:0px;writing-mode:lr-tb;text-anchor:start;fill:#e61414;fill-opacity:1;stroke:none;font-family:Arial Rounded MT Bold;-inkscape-font-specification:'Arial Rounded MT Bold,'"
       xml:space="preserve"><tspan
         y="373.68884"
         x="281.37289"
         id="tspan5420"
         sodipodi:role="line"
         style="font-size:2px;font-style:normal;font-variant:normal;font-weight:normal;font-stretch:normal;text-align:start;line-height:125%;letter-spacing:0.59219819px;writing-mode:lr-tb;text-anchor:start;font-family:Arial Rounded MT Bold;-inkscape-font-specification:'Arial Rounded MT Bold,'">Wohnbevölkerung nach Kanton</tspan><tspan
         y="376.18884"
         x="281.37289"
         sodipodi:role="line"
         style="font-size:2px;font-style:normal;font-variant:normal;font-weight:normal;font-stretch:normal;text-align:start;line-height:125%;letter-spacing:0.59219819px;writing-mode:lr-tb;text-anchor:start;font-family:Arial Rounded MT Bold;-inkscape-font-specification:'Arial Rounded MT Bold,'"
         id="tspan5422">Bundesamt für Statistik 2010</tspan></text>
    <rect
       style="fill:#e61414;fill-opacity:1;stroke:#ffffff;stroke-width:0.25"
       id="rect5427"
       width="0.96519184"
       height="5.8601103"
       x="262.44476"
       y="394.24945"
       ry="0.34471151" />
  </g>
</svg>
