<?xml version="1.0" encoding="UTF-8" standalone="no"?>
<!-- Created with Inkscape (http://www.inkscape.org/) -->

<svg
   xmlns:dc="http://purl.org/dc/elements/1.1/"
   xmlns:cc="http://creativecommons.org/ns#"
   xmlns:rdf="http://www.w3.org/1999/02/22-rdf-syntax-ns#"
   xmlns:svg="http://www.w3.org/2000/svg"
   xmlns="http://www.w3.org/2000/svg"
   xmlns:xlink="http://www.w3.org/1999/xlink"
   xmlns:sodipodi="http://sodipodi.sourceforge.net/DTD/sodipodi-0.dtd"
   xmlns:inkscape="http://www.inkscape.org/namespaces/inkscape"
   width="1052.3622"
   height="744.09448"
   id="svg2"
   sodipodi:version="0.32"
   inkscape:version="0.48.2 r9819"
   version="1.0"
   sodipodi:docname="t-shirt_template.svg"
   inkscape:export-filename="/Users/oleg/Desktop/tshirt1.png"
   inkscape:export-xdpi="99.97509"
   inkscape:export-ydpi="99.97509">
  <defs
     id="defs4" />
  <sodipodi:namedview
     id="base"
     pagecolor="#ffffff"
     bordercolor="#666666"
     borderopacity="1.0"
     gridtolerance="10000"
     guidetolerance="10000"
     objecttolerance="10000"
     inkscape:pageopacity="0.0"
     inkscape:pageshadow="2"
     inkscape:zoom="2.8284271"
     inkscape:cx="328.39434"
     inkscape:cy="346.89904"
     inkscape:document-units="pt"
     inkscape:current-layer="layer2"
     width="841.88975pt"
     height="595.27559pt"
     inkscape:window-width="1118"
     inkscape:window-height="1036"
     inkscape:window-x="807"
     inkscape:window-y="0"
     showgrid="true"
     units="pt"
     grid_units="pt"
     inkscape:object-bbox="true"
     inkscape:object-points="true"
     inkscape:object-nodes="true"
     inkscape:grid-points="true"
     inkscape:guide-points="true"
     inkscape:window-maximized="0">
    <inkscape:grid
       id="GridFromPre046Settings"
       type="xygrid"
       originx="0px"
       originy="0px"
       spacingx="2pt"
       spacingy="2pt"
       color="#0000ff"
       empcolor="#0000ff"
       opacity="0.2"
       empopacity="0.4"
       empspacing="5" />
  </sodipodi:namedview>
  <metadata
     id="metadata7">
    <rdf:RDF>
      <cc:Work
         rdf:about="">
        <dc:format>image/svg+xml</dc:format>
        <dc:type
           rdf:resource="http://purl.org/dc/dcmitype/StillImage" />
        <dc:title></dc:title>
        <dc:date>20070219</dc:date>
        <dc:creator>
          <cc:Agent>
            <dc:title>Francis Jacquerye</dc:title>
          </cc:Agent>
        </dc:creator>
        <cc:license
           rdf:resource="http://web.resource.org/cc/PublicDomain" />
        <dc:rights>
          <cc:Agent>
            <dc:title>Public Domain</dc:title>
          </cc:Agent>
        </dc:rights>
        <dc:publisher>
          <cc:Agent>
            <dc:title />
          </cc:Agent>
        </dc:publisher>
        <dc:source>http://1sd.org/uploads/Images/t-shirt_template.svg </dc:source>
        <dc:subject>
          <rdf:Bag>
            <rdf:li>SVG</rdf:li>
            <rdf:li>t-shirt</rdf:li>
            <rdf:li>template</rdf:li>
            <rdf:li>vector</rdf:li>
            <rdf:li>vectorial</rdf:li>
          </rdf:Bag>
        </dc:subject>
        <dc:description>I could'nt find any existing template so I decided to make one</dc:description>
      </cc:Work>
      <cc:License
         rdf:about="http://web.resource.org/cc/PublicDomain">
        <cc:permits
           rdf:resource="http://web.resource.org/cc/Reproduction" />
        <cc:permits
           rdf:resource="http://web.resource.org/cc/Distribution" />
        <cc:permits
           rdf:resource="http://web.resource.org/cc/DerivativeWorks" />
      </cc:License>
    </rdf:RDF>
  </metadata>
  <g
     inkscape:groupmode="layer"
     id="layer2"
     inkscape:label="Vector">
    <path
       style="fill:none;fill-opacity:0.75;fill-rule:evenodd;stroke:black;stroke-width:1px;stroke-linecap:butt;stroke-linejoin:miter;stroke-opacity:1"
       d="M 357 244.59375 C 357 244.59375 342 252.09375 324.5 252.09375 C 307.6833 252.09375 295.38169 245.72153 294.4375 245.21875 C 294.34033 246.25713 293.97837 250.93341 294.59375 256.875 C 301.44527 259.45256 311.55194 262.09375 324.375 262.09375 C 338.38326 262.09375 350.08632 258.94835 357.65625 256.1875 C 357.88755 249.99743 357.16162 245.47547 357.125 245.25 C 356.9858 244.86031 357 244.59375 357 244.59375 z M 357.25 245.53125 C 357.33685 245.71943 357.47065 245.92602 357.625 246.15625 C 357.46875 245.92187 357.33789 245.72168 357.25 245.53125 z M 358.21875 246.90625 C 358.46362 247.17366 358.77243 247.45798 359.125 247.75 C 358.77344 247.45703 358.46289 247.1748 358.21875 246.90625 z M 359.125 247.75 C 359.46722 248.03345 359.85098 248.32705 360.3125 248.625 C 359.85158 248.32652 359.46644 248.03453 359.125 247.75 z M 284.53125 252.0625 C 284.53125 252.0625 284.5 252.09375 284.5 252.09375 C 284.50036 252.09297 284.52967 252.12493 284.53125 252.125 C 284.52863 252.10417 284.53386 252.08335 284.53125 252.0625 z "
       id="path1982" />
    <path
       style="fill:none;fill-opacity:0.75;fill-rule:evenodd;stroke:black;stroke-width:1px;stroke-linecap:butt;stroke-linejoin:miter;stroke-opacity:1"
       d="M 294.25,245.125 C 294.25,245.125 292.70441,247.98495 289.5,249.59375 C 284.81636,251.94521 284.83125,251.92922 284.8125,251.9375 L 284.71875,251.9375 L 284.6875,251.9375 L 284.53125,252.0625 C 288.49711,283.68779 302,299.59375 327,299.59375 C 368.35604,299.59375 367.09747,254.95253 367,252.53125 L 366.28125,252.5 C 366.70729,252.27792 367,252.09375 367,252.09375 C 367,252.09375 367,252.09375 362,249.59375 C 358.875,248.03125 357.68945,246.4834 357.25,245.53125 C 357.21749,245.46082 357.21249,245.40726 357.1875,245.34375 L 357.1875,245.15625 L 357.125,245.125 C 357.125,245.125 364.5,289.59375 327,289.59375 C 291.01444,289.59375 294.1243,248.56577 294.4375,245.21875 C 294.38249,245.19147 294.25,245.125 294.25,245.125 z "
       id="path1984" />
    <path
       style="fill:none;fill-opacity:0.75;fill-rule:evenodd;stroke:black;stroke-width:1px;stroke-linecap:butt;stroke-linejoin:miter;stroke-opacity:1"
       d="M 284.625,251.96875 L 219.5,267.09375 L 232,309.59375 L 237,527.09375 L 414.5,527.09375 L 412,324.59375 L 429.5,264.59375 L 367,252.09375 C 367,252.09375 366.70729,252.27792 366.28125,252.5 L 367,252.53125 C 367.09747,254.95253 368.35604,299.59375 327,299.59375 C 302,299.59375 288.49711,283.68779 284.53125,252.0625 L 284.625,251.96875 z "
       id="path2051" />
    <path
       style="fill:none;fill-opacity:0.75;fill-rule:evenodd;stroke:black;stroke-width:1px;stroke-linecap:butt;stroke-linejoin:miter;stroke-opacity:1"
       d="M 219.5,267.09375 L 152.8125,292.375 L 175.4375,369.28125 L 233.3125,367.03125 L 233.3125,367 L 232,309.59375 L 219.5,267.09375 z "
       id="path1994" />
    <path
       style="fill:none;fill-opacity:0.75;fill-rule:evenodd;stroke:black;stroke-width:1px;stroke-linecap:butt;stroke-linejoin:miter;stroke-opacity:1"
       d="M 429.46875,264.65625 L 412,324.59375 L 412.53125,366.90625 L 475.78125,364.875 L 493.28125,285.09375 L 429.46875,264.65625 z "
       id="path1996" />
    <path
       style="fill:none;fill-opacity:0.75;fill-rule:evenodd;stroke:black;stroke-width:1px;stroke-linecap:butt;stroke-linejoin:miter;stroke-opacity:1"
       d="M 152.8125,292.375 L 147,294.59375 L 167,369.59375 L 175.4375,369.28125 L 152.8125,292.375 z "
       id="path2004" />
    <path
       style="fill:none;fill-opacity:0.75;fill-rule:evenodd;stroke:black;stroke-width:1px;stroke-linecap:butt;stroke-linejoin:miter;stroke-opacity:1"
       d="M 493.28125,285.09375 L 475.78125,364.875 L 484.5,364.59375 L 499.5,287.09375 L 493.28125,285.09375 z "
       id="path2009" />
    <path
       style="fill:none;fill-opacity:0.75;fill-rule:evenodd;stroke:black;stroke-width:1px;stroke-linecap:butt;stroke-linejoin:miter;stroke-opacity:1"
       d="M 367,252.09375 C 367,252.09375 366.70729,252.27792 366.28125,252.5 L 366.75,252.53125 L 367.03125,252.09375 L 367,252.09375 z M 357.625,256.1875 C 350.05432,258.94602 338.36706,262.09375 324.375,262.09375 C 311.56955,262.09375 301.47615,259.44925 294.625,256.875 C 295.98381,270.08245 302.16267,289.59375 327,289.59375 C 352.34079,289.59375 357.14754,269.35061 357.625,256.1875 z "
       id="path2022" />
    <path
       sodipodi:nodetypes="cscscsczc"
       id="path2024"
       d="M 822,252.09448 C 822,252.09448 821.99588,252.1027 817,249.59448 C 813.79559,247.98568 812.23789,245.12235 812.23789,245.12235 C 812.23789,245.12235 799.5,252.09448 782,252.09448 C 764.5,252.09448 749.5,244.59448 749.5,244.59448 C 749.5,244.59448 749.5,247.09448 744.5,249.59448 C 739.5,252.09448 739.5,252.09448 739.5,252.09448 C 739.5,252.09448 757.11043,262.09442 782.11043,262.09442 C 807.11043,262.09442 821.94452,251.97354 822,252.09448 z "
       style="fill:none;fill-opacity:0.75;fill-rule:evenodd;stroke:black;stroke-width:1px;stroke-linecap:butt;stroke-linejoin:miter;stroke-opacity:1" />
    <path
       style="fill:none;fill-opacity:0.75;fill-rule:evenodd;stroke:black;stroke-width:1px;stroke-linecap:butt;stroke-linejoin:miter;stroke-opacity:1"
       d="M 821.6875 251.9375 C 821.68875 251.93805 822 252.09375 822 252.09375 C 821.94452 251.97281 807.12502 262.09375 782.125 262.09375 C 757.125 262.09375 739.5 252.09375 739.5 252.09375 L 677 264.59375 L 694.5 324.59375 L 692 527.09375 L 869.5 527.09375 L 874.5 309.59375 L 887 267.09375 L 821.6875 251.9375 z M 785.53125 252 L 779.375 252.03125 C 780.24394 252.06753 781.11671 252.09375 782 252.09375 C 783.2044 252.09375 784.37456 252.0615 785.53125 252 z "
       id="path2028" />
    <path
       id="path2030"
       d="M 887,267.09375 L 953.6875,292.375 L 931.0625,369.28125 L 873.1875,367.03125 L 873.1875,367 L 874.5,309.59375 L 887,267.09375 z "
       style="fill:none;fill-opacity:0.75;fill-rule:evenodd;stroke:black;stroke-width:1px;stroke-linecap:butt;stroke-linejoin:miter;stroke-opacity:1" />
    <path
       id="path2032"
       d="M 677.03125,264.65625 L 694.5,324.59375 L 693.96875,366.90625 L 630.71875,364.875 L 613.21875,285.09375 L 677.03125,264.65625 z "
       style="fill:none;fill-opacity:0.75;fill-rule:evenodd;stroke:black;stroke-width:1px;stroke-linecap:butt;stroke-linejoin:miter;stroke-opacity:1" />
    <path
       id="path2034"
       d="M 953.6875,292.375 L 959.5,294.59375 L 939.5,369.59375 L 931.0625,369.28125 L 953.6875,292.375 z "
       style="fill:none;fill-opacity:0.75;fill-rule:evenodd;stroke:black;stroke-width:1px;stroke-linecap:butt;stroke-linejoin:miter;stroke-opacity:1" />
    <path
       id="path2036"
       d="M 613.21875,285.09375 L 630.71875,364.875 L 622,364.59375 L 607,287.09375 L 613.21875,285.09375 z "
       style="fill:none;fill-opacity:0.75;fill-rule:evenodd;stroke:black;stroke-width:1px;stroke-linecap:butt;stroke-linejoin:miter;stroke-opacity:1" />
    <image
       y="306.59448"
       x="737.5"
       id="image3372"
       xlink:href="file:///Users/oleg/Documents/Open%20Data/OpenData.ch%20Logo/Screen%20RGB/Red/Pixel%20Large%20(PNG)/opendata-logo-RGB-onlyicon-nocircle-large.png"
       height="99.895836"
       width="87.5" />
    <path
       sodipodi:type="arc"
       style="fill:#e61414;fill-opacity:1;stroke:#ffffff;stroke-width:0.5"
       id="path3469"
       sodipodi:cx="331.25"
       sodipodi:cy="400.34448"
       sodipodi:rx="18.75"
       sodipodi:ry="18.75"
       d="m 350,400.34448 a 18.75,18.75 0 1 1 -37.5,0 18.75,18.75 0 1 1 37.5,0 z"
       transform="translate(6.25,-12.5)" />
    <image
       y="315.94208"
       x="334.3476"
       id="image3466"
       xlink:href="file:///Users/oleg/Documents/Open%20Data/OpenData.ch%20Logo/Screen%20RGB/Red/Pixel%20Large%20(PNG)/opendata-logo-RGB-onlytype-large.png"
       height="65.652405"
       width="65.652405" />
    <path
       transform="matrix(0.66666667,0,0,0.66666667,91.666666,102.19816)"
       d="m 350,400.34448 a 18.75,18.75 0 1 1 -37.5,0 18.75,18.75 0 1 1 37.5,0 z"
       sodipodi:ry="18.75"
       sodipodi:rx="18.75"
       sodipodi:cy="400.34448"
       sodipodi:cx="331.25"
       id="path3471"
       style="fill:#e61414;fill-opacity:1;stroke:#ffffff;stroke-width:0.5"
       sodipodi:type="arc" />
    <path
       sodipodi:type="arc"
       style="fill:#e61414;fill-opacity:1;stroke:#ffffff;stroke-width:0.5"
       id="path3473"
       sodipodi:cx="331.25"
       sodipodi:cy="400.34448"
       sodipodi:rx="18.75"
       sodipodi:ry="18.75"
       d="m 350,400.34448 a 18.75,18.75 0 1 1 -37.5,0 18.75,18.75 0 1 1 37.5,0 z"
       transform="matrix(0.33333335,0,0,0.33333335,239.58333,279.39631)" />
    <path
       transform="matrix(0.25089793,0,0,0.25089793,279.39006,323.35322)"
       d="m 350,400.34448 a 18.75,18.75 0 1 1 -37.5,0 18.75,18.75 0 1 1 37.5,0 z"
       sodipodi:ry="18.75"
       sodipodi:rx="18.75"
       sodipodi:cy="400.34448"
       sodipodi:cx="331.25"
       id="path3475"
       style="fill:#e61414;fill-opacity:1;stroke:#ffffff;stroke-width:0.5"
       sodipodi:type="arc" />
    <path
       sodipodi:type="arc"
       style="fill:#e61414;fill-opacity:1;stroke:#ffffff;stroke-width:0.5"
       id="path3477"
       sodipodi:cx="331.25"
       sodipodi:cy="400.34448"
       sodipodi:rx="18.75"
       sodipodi:ry="18.75"
       d="m 350,400.34448 a 18.75,18.75 0 1 1 -37.5,0 18.75,18.75 0 1 1 37.5,0 z"
       transform="matrix(0.29211566,0,0,0.29211566,196.21386,252.14759)" />
    <path
       transform="matrix(0.14605789,0,0,0.14605789,273.87974,360.62101)"
       d="m 350,400.34448 a 18.75,18.75 0 1 1 -37.5,0 18.75,18.75 0 1 1 37.5,0 z"
       sodipodi:ry="18.75"
       sodipodi:rx="18.75"
       sodipodi:cy="400.34448"
       sodipodi:cx="331.25"
       id="path3479"
       style="fill:#e61414;fill-opacity:1;stroke:#ffffff;stroke-width:0.5"
       sodipodi:type="arc" />
    <path
       sodipodi:type="arc"
       style="fill:#e61414;fill-opacity:1;stroke:#ffffff;stroke-width:0.5"
       id="path3481"
       sodipodi:cx="331.25"
       sodipodi:cy="400.34448"
       sodipodi:rx="18.75"
       sodipodi:ry="18.75"
       d="m 350,400.34448 a 18.75,18.75 0 1 1 -37.5,0 18.75,18.75 0 1 1 37.5,0 z"
       transform="matrix(0.14605789,0,0,0.14605789,270.62974,346.37101)" />
    <path
       transform="matrix(0.14605789,0,0,0.14605789,223.87974,335.62101)"
       d="m 350,400.34448 a 18.75,18.75 0 1 1 -37.5,0 18.75,18.75 0 1 1 37.5,0 z"
       sodipodi:ry="18.75"
       sodipodi:rx="18.75"
       sodipodi:cy="400.34448"
       sodipodi:cx="331.25"
       id="path3483"
       style="fill:#e61414;fill-opacity:1;stroke:#ffffff;stroke-width:0.5"
       sodipodi:type="arc" />
    <path
       sodipodi:type="arc"
       style="fill:#e61414;fill-opacity:1;stroke:#ffffff;stroke-width:0.5"
       id="path3485"
       sodipodi:cx="331.25"
       sodipodi:cy="400.34448"
       sodipodi:rx="18.75"
       sodipodi:ry="18.75"
       d="m 350,400.34448 a 18.75,18.75 0 1 1 -37.5,0 18.75,18.75 0 1 1 37.5,0 z"
       transform="matrix(0.14605789,0,0,0.14605789,326.61832,345.38243)" />
    <path
       sodipodi:type="arc"
       style="fill:#e61414;fill-opacity:1;stroke:#ffffff;stroke-width:0.5"
       id="path3487"
       sodipodi:cx="331.25"
       sodipodi:cy="400.34448"
       sodipodi:rx="18.75"
       sodipodi:ry="18.75"
       d="m 350,400.34448 a 18.75,18.75 0 1 1 -37.5,0 18.75,18.75 0 1 1 37.5,0 z"
       transform="matrix(0.25089793,0,0,0.25089793,224.68572,293.64888)" />
    <path
       transform="matrix(0.25089793,0,0,0.25089793,204.39006,287.85322)"
       d="m 350,400.34448 a 18.75,18.75 0 1 1 -37.5,0 18.75,18.75 0 1 1 37.5,0 z"
       sodipodi:ry="18.75"
       sodipodi:rx="18.75"
       sodipodi:cy="400.34448"
       sodipodi:cx="331.25"
       id="path3489"
       style="fill:#e61414;fill-opacity:1;stroke:#ffffff;stroke-width:0.5"
       sodipodi:type="arc" />
    <path
       sodipodi:type="arc"
       style="fill:#e61414;fill-opacity:1;stroke:#ffffff;stroke-width:0.5"
       id="path3491"
       sodipodi:cx="331.25"
       sodipodi:cy="400.34448"
       sodipodi:rx="18.75"
       sodipodi:ry="18.75"
       d="m 350,400.34448 a 18.75,18.75 0 1 1 -37.5,0 18.75,18.75 0 1 1 37.5,0 z"
       transform="matrix(0.06666677,0,0,0.06666677,289.16663,392.40481)" />
    <path
       transform="matrix(0.06666677,0,0,0.06666677,239.66663,359.40481)"
       d="m 350,400.34448 a 18.75,18.75 0 1 1 -37.5,0 18.75,18.75 0 1 1 37.5,0 z"
       sodipodi:ry="18.75"
       sodipodi:rx="18.75"
       sodipodi:cy="400.34448"
       sodipodi:cx="331.25"
       id="path3493"
       style="fill:#e61414;fill-opacity:1;stroke:#ffffff;stroke-width:0.5"
       sodipodi:type="arc" />
    <path
       sodipodi:type="arc"
       style="fill:#e61414;fill-opacity:1;stroke:#ffffff;stroke-width:0.5"
       id="path3495"
       sodipodi:cx="331.25"
       sodipodi:cy="400.34448"
       sodipodi:rx="18.75"
       sodipodi:ry="18.75"
       d="m 350,400.34448 a 18.75,18.75 0 1 1 -37.5,0 18.75,18.75 0 1 1 37.5,0 z"
       transform="matrix(0.06666677,0,0,0.06666677,301.66663,379.40481)" />
    <path
       transform="matrix(0.06666677,0,0,0.06666677,277.91663,362.65481)"
       d="m 350,400.34448 a 18.75,18.75 0 1 1 -37.5,0 18.75,18.75 0 1 1 37.5,0 z"
       sodipodi:ry="18.75"
       sodipodi:rx="18.75"
       sodipodi:cy="400.34448"
       sodipodi:cx="331.25"
       id="path3497"
       style="fill:#e61414;fill-opacity:1;stroke:#ffffff;stroke-width:0.5"
       sodipodi:type="arc" />
    <path
       sodipodi:type="arc"
       style="fill:#e61414;fill-opacity:1;stroke:#ffffff;stroke-width:0.5"
       id="path3499"
       sodipodi:cx="331.25"
       sodipodi:cy="400.34448"
       sodipodi:rx="18.75"
       sodipodi:ry="18.75"
       d="m 350,400.34448 a 18.75,18.75 0 1 1 -37.5,0 18.75,18.75 0 1 1 37.5,0 z"
       transform="matrix(0.06666677,0,0,0.06666677,359.66663,359.40481)" />
    <path
       transform="matrix(0.06666677,0,0,0.06666677,340.41663,381.15481)"
       d="m 350,400.34448 a 18.75,18.75 0 1 1 -37.5,0 18.75,18.75 0 1 1 37.5,0 z"
       sodipodi:ry="18.75"
       sodipodi:rx="18.75"
       sodipodi:cy="400.34448"
       sodipodi:cx="331.25"
       id="path3501"
       style="fill:#e61414;fill-opacity:1;stroke:#ffffff;stroke-width:0.5"
       sodipodi:type="arc" />
    <path
       sodipodi:type="arc"
       style="fill:#e61414;fill-opacity:1;stroke:#ffffff;stroke-width:0.5"
       id="path3503"
       sodipodi:cx="331.25"
       sodipodi:cy="400.34448"
       sodipodi:rx="18.75"
       sodipodi:ry="18.75"
       d="m 350,400.34448 a 18.75,18.75 0 1 1 -37.5,0 18.75,18.75 0 1 1 37.5,0 z"
       transform="matrix(0.06666677,0,0,0.06666677,351.66663,404.90481)" />
    <path
       transform="matrix(0.39211564,0,0,0.39211564,196.25953,197.61315)"
       d="m 350,400.34448 a 18.75,18.75 0 1 1 -37.5,0 18.75,18.75 0 1 1 37.5,0 z"
       sodipodi:ry="18.75"
       sodipodi:rx="18.75"
       sodipodi:cy="400.34448"
       sodipodi:cx="331.25"
       id="path3505"
       style="fill:#e61414;fill-opacity:1;stroke:#ffffff;stroke-width:0.5"
       sodipodi:type="arc" />
    <path
       transform="matrix(0.14605789,0,0,0.14605789,236.37974,298.12101)"
       d="m 350,400.34448 a 18.75,18.75 0 1 1 -37.5,0 18.75,18.75 0 1 1 37.5,0 z"
       sodipodi:ry="18.75"
       sodipodi:rx="18.75"
       sodipodi:cy="400.34448"
       sodipodi:cx="331.25"
       id="path3507"
       style="fill:#e61414;fill-opacity:1;stroke:#ffffff;stroke-width:0.5"
       sodipodi:type="arc" />
  </g>
</svg>
